# xmcd
#
# Track frame offsets: 
#        150
#        13601
#        33782
#        54152
#        69553
#        87281
#        103739
#        121050
#        138310
#        158813
#        179414
#
# Disc length: 2590 seconds
#
# Revision: 0
# Processed by: cddbd v1.5.2PL0 Copyright (c) Steve Scherf et al.
# Submitted via: ExactAudioCopy v0.95a5
#
DISCID=840a1c0b
DTITLE=Chris Démolition Blues - Mauvaise pioche
DYEAR=2009
DGENRE=Blues
TTITLE0=Rien à voir
TTITLE1=Pure paresse
TTITLE2=La manette magique
TTITLE3=C'est râpé
TTITLE4=La fille au premier rang
TTITLE5=Arnaque club
TTITLE6=A l'eau
TTITLE7=Murphy
TTITLE8=C'est reparti pour un tour
TTITLE9=De côté comme de face
TTITLE10=Trés peu pour moi
EXTD=
EXTT0=
EXTT1=
EXTT2=
EXTT3=
EXTT4=
EXTT5=
EXTT6=
EXTT7=
EXTT8=
EXTT9=
EXTT10=
PLAYORDER=
